<?xml version="1.0" encoding="UTF-8" standalone="no"?>
<!DOCTYPE svg PUBLIC "-//W3C//DTD SVG 1.1//EN" "http://www.w3.org/Graphics/SVG/1.1/DTD/svg11.dtd">
<svg xmlns="http://www.w3.org/2000/svg" version="1.1" viewBox="0.00 0.00 500.00 500.00">
<g stroke-width="2.00" fill="none" stroke-linecap="butt">
<path stroke="#2a6bc4" vector-effect="non-scaling-stroke" d="
  M 148.25 224.46
  C 143.76 233.40 140.58 245.90 127.93 246.32
  C 124.53 246.44 120.78 244.98 117.40 243.79
  Q 116.86 243.60 116.39 243.91
  Q 114.09 245.40 114.13 248.69
  C 114.27 260.93 115.16 272.14 120.55 283.20
  C 122.30 286.81 125.50 285.62 128.40 283.81
  C 137.21 278.33 144.16 295.72 146.46 301.50"
/>
<path stroke="#8887d0" vector-effect="non-scaling-stroke" d="
  M 146.46 301.50
  L 148.25 306.04"
/>
<path stroke="#096688" vector-effect="non-scaling-stroke" d="
  M 148.25 306.04
  C 155.28 328.79 162.59 346.85 179.21 363.50"
/>
<path stroke="#096688" vector-effect="non-scaling-stroke" d="
  M 182.30 366.70
  Q 186.38 371.81 191.39 375.30"
/>
<path stroke="#8887d0" vector-effect="non-scaling-stroke" d="
  M 191.39 375.30
  Q 193.40 377.58 195.03 378.10"
/>
<path stroke="#096688" vector-effect="non-scaling-stroke" d="
  M 195.03 378.10
  C 197.79 381.29 199.34 382.98 200.60 387.30
  Q 202.55 393.97 208.00 398.54"
/>
<path stroke="#8887d0" vector-effect="non-scaling-stroke" d="
  M 208.00 398.54
  L 211.53 401.96"
/>
<path stroke="#096688" vector-effect="non-scaling-stroke" d="
  M 211.53 401.96
  Q 224.46 413.48 238.93 422.16
  C 246.43 426.66 250.75 429.33 258.41 424.91
  Q 277.07 414.15 291.49 400.91"
/>
<path stroke="#8887d0" vector-effect="non-scaling-stroke" d="
  M 291.49 400.91
  L 295.00 397.54"
/>
<path stroke="#096688" vector-effect="non-scaling-stroke" d="
  M 295.00 397.54
  Q 299.68 393.50 301.12 387.62
  C 302.70 381.19 308.85 376.82 315.07 371.31
  Q 326.06 361.57 334.38 349.32"
/>
<path stroke="#8887d0" vector-effect="non-scaling-stroke" d="
  M 334.38 349.32
  L 337.25 345.04"
/>
<path stroke="#096688" vector-effect="non-scaling-stroke" d="
  M 337.25 345.04
  C 344.62 335.05 348.90 321.08 352.50 309.29"
/>
<path stroke="#8887d0" vector-effect="non-scaling-stroke" d="
  M 352.50 309.29
  L 354.29 304.50"
/>
<path stroke="#2a6bc4" vector-effect="non-scaling-stroke" d="
  M 354.29 304.50
  C 356.80 298.66 362.72 281.92 370.65 282.73
  C 374.39 283.11 376.82 288.07 380.71 284.20
  Q 381.83 283.08 383.46 278.82
  C 387.15 269.18 388.26 257.04 387.64 247.08
  C 387.43 243.60 384.83 243.66 382.18 244.64
  C 364.96 250.98 359.11 237.24 353.59 224.47"
/>
<path stroke="#831f70" vector-effect="non-scaling-stroke" d="
  M 353.59 224.47
  Q 349.59 193.64 364.49 166.21
  C 369.65 156.71 376.28 147.06 384.43 140.33
  C 386.86 138.33 391.63 136.08 390.96 132.27
  C 390.24 128.12 386.98 127.44 383.19 128.22
  C 352.61 134.46 305.11 136.57 286.46 104.85
  Q 285.56 103.33 283.05 96.95
  C 272.88 71.17 236.99 66.75 222.08 90.59
  Q 221.36 91.74 217.94 99.67
  C 202.12 136.40 150.42 135.24 117.90 128.05
  C 110.83 126.49 108.69 133.82 114.38 137.96
  Q 121.29 142.99 127.47 151.01
  C 144.26 172.83 151.69 196.79 148.25 224.46"
/>
<path stroke="#9d7c93" vector-effect="non-scaling-stroke" d="
  M 353.59 224.47
  L 148.25 224.46"
/>
<path stroke="#a1e4f3" vector-effect="non-scaling-stroke" d="
  M 354.29 304.50
  Q 342.75 286.80 332.86 268.11
  C 331.66 265.83 330.17 264.63 328.12 263.27
  Q 327.71 263.01 327.70 262.52
  L 327.56 254.34
  A 1.08 1.08 0.0 0 1 328.70 253.24
  C 337.39 253.74 335.78 245.18 329.73 246.59
  Q 326.87 247.26 327.72 244.97
  C 329.74 239.48 318.98 239.15 321.32 244.94
  A 1.65 1.17 -4.3 0 1 319.45 246.48
  C 316.47 246.22 313.12 247.33 314.25 250.84
  C 315.21 253.80 318.16 253.20 320.57 253.26
  Q 321.13 253.27 321.14 253.83
  L 321.30 262.38
  Q 321.31 262.97 320.81 263.28
  Q 317.40 265.38 316.78 266.55
  Q 302.57 293.48 285.44 318.39
  A 0.61 0.61 0.0 0 1 284.43 318.38
  C 280.41 312.31 259.34 280.70 260.26 275.74
  C 261.56 268.75 266.40 266.43 272.81 265.54
  Q 277.16 264.93 280.26 261.63
  Q 280.62 261.25 281.12 261.35
  C 299.96 264.95 297.85 236.47 281.24 240.96
  Q 280.74 241.10 280.37 240.73
  Q 275.21 235.51 268.26 237.70
  Q 267.75 237.86 267.37 237.48
  Q 260.80 230.82 252.72 235.71
  Q 252.24 236.00 251.76 235.71
  Q 243.44 230.73 236.93 237.60
  A 0.72 0.71 -58.2 0 1 236.18 237.78
  Q 229.22 235.41 224.22 240.60
  Q 223.87 240.96 223.38 240.87
  C 205.65 237.71 204.41 263.91 223.40 261.45
  Q 223.92 261.39 224.28 261.76
  C 230.82 268.52 241.61 262.66 244.01 275.26
  Q 244.12 275.84 243.85 276.36
  Q 231.47 299.63 216.71 321.46
  A 0.69 0.68 -45.4 0 1 215.58 321.47
  Q 197.46 295.64 182.70 267.80
  Q 181.34 265.24 178.02 263.40
  Q 177.50 263.12 177.50 262.52
  L 177.50 253.95
  Q 177.50 253.24 178.22 253.25
  C 187.96 253.47 185.72 244.86 177.94 246.64
  Q 177.17 246.81 177.37 246.05
  C 178.99 239.73 171.01 237.89 170.99 245.02
  Q 170.99 246.40 169.60 246.38
  C 160.92 246.26 162.99 254.66 169.97 253.16
  A 0.85 0.85 0.0 0 1 171.00 253.99
  L 171.00 262.79
  Q 171.00 263.36 170.48 263.60
  Q 167.57 264.95 166.75 266.52
  Q 157.35 284.45 146.46 301.50"
/>
<path stroke="#81deb8" vector-effect="non-scaling-stroke" d="
  M 352.50 309.29
  Q 340.23 290.56 329.76 270.76
  C 326.37 264.33 321.61 265.98 318.60 271.61
  Q 304.63 297.77 287.61 322.25
  Q 287.31 322.69 287.62 323.13
  Q 295.72 334.59 304.95 345.17
  Q 305.32 345.58 305.86 345.55
  Q 321.61 344.73 337.25 345.04"
/>
<path stroke="#81deb8" vector-effect="non-scaling-stroke" d="
  M 334.38 349.32
  Q 315.20 348.35 294.74 350.71
  Q 242.31 356.74 195.03 378.10"
/>
<path stroke="#81deb8" vector-effect="non-scaling-stroke" d="
  M 191.39 375.30
  Q 243.23 351.57 300.06 346.13
  A 0.19 0.19 0.0 0 0 300.18 345.82
  C 283.01 325.64 269.03 302.96 256.54 279.66
  C 253.68 274.32 249.37 274.50 246.52 279.84
  C 232.30 306.42 216.62 331.75 195.96 353.41"
/>
<path stroke="#81deb8" vector-effect="non-scaling-stroke" d="
  M 194.53 349.33
  Q 204.48 338.20 213.45 326.22
  Q 213.75 325.81 213.46 325.39
  Q 194.53 298.86 179.29 270.05
  C 176.27 264.34 171.29 266.39 168.74 271.26
  Q 159.34 289.15 148.25 306.04"
/>
<path stroke="#81deb8" vector-effect="non-scaling-stroke" d="
  M 295.00 397.54
  Q 251.34 385.11 208.00 398.54"
/>
<path stroke="#81deb8" vector-effect="non-scaling-stroke" d="
  M 291.49 400.91
  Q 251.11 389.58 211.53 401.96"
/>
<path stroke="#fb989f" vector-effect="non-scaling-stroke" d="
  M 249.97 120.83
  Q 250.02 120.70 250.07 120.56
  Q 250.17 120.24 250.50 120.18
  Q 252.32 119.84 251.90 118.06
  Q 251.77 117.49 251.18 117.41
  L 248.15 116.99
  Q 247.39 116.89 247.17 117.62
  L 246.09 121.25
  Q 245.93 121.79 245.45 122.10
  L 242.67 123.87
  Q 242.21 124.17 242.11 124.71
  L 241.64 127.31
  Q 241.55 127.79 241.79 128.21
  Q 242.73 129.93 241.84 131.76
  Q 241.64 132.16 242.02 132.38
  L 242.27 132.53
  Q 242.45 132.63 242.62 132.51
  L 244.26 131.32
  Q 245.07 130.74 245.02 131.74
  Q 244.95 133.18 244.06 134.34
  Q 243.72 134.79 243.19 134.63
  L 234.74 132.20
  Q 234.07 132.01 234.41 131.40
  L 238.13 124.63
  Q 238.42 124.10 239.02 124.13
  Q 240.62 124.22 240.26 122.62
  Q 240.16 122.14 240.47 121.77
  L 253.16 106.64
  A 0.36 0.36 0.0 0 0 252.63 106.15
  L 238.93 120.20
  Q 238.56 120.57 238.07 120.40
  L 237.29 120.14
  Q 236.60 119.90 236.55 120.63
  L 236.40 123.29
  Q 236.37 123.75 236.05 124.10
  C 234.43 125.85 227.78 131.28 231.06 133.44
  Q 236.54 137.06 242.05 140.69
  Q 242.50 140.98 242.72 141.47
  Q 244.62 145.71 248.63 148.09
  A 0.38 0.38 0.0 0 1 248.54 148.78
  Q 242.64 150.45 239.40 155.76
  Q 239.17 156.14 239.20 156.58
  Q 239.88 165.30 240.82 173.99
  C 241.18 177.28 238.06 178.85 235.84 180.46
  A 0.50 0.50 0.0 0 0 236.26 181.34
  L 243.99 179.26
  Q 244.55 179.11 244.34 178.56
  C 242.62 174.07 245.48 165.45 247.05 160.54
  C 247.39 159.48 247.14 158.46 247.50 157.31
  Q 247.61 156.95 247.98 156.87
  L 261.71 153.78
  Q 263.14 153.46 262.73 152.06
  Q 261.40 147.49 256.99 145.57
  Q 256.46 145.33 256.20 144.82
  Q 254.65 141.79 254.50 138.36
  Q 254.46 137.66 255.14 137.50
  Q 260.90 136.12 265.15 131.97
  Q 265.59 131.55 266.19 131.53
  Q 273.40 131.31 279.95 134.41
  A 0.77 0.77 0.0 0 0 280.84 133.19
  Q 275.49 127.44 268.09 124.93
  Q 267.58 124.76 267.69 124.23
  L 268.28 121.21
  A 0.53 0.53 0.0 0 0 267.39 120.74
  C 266.79 121.35 264.49 125.04 263.76 124.62
  Q 263.29 124.34 263.31 123.80
  Q 263.35 122.68 262.22 122.47
  Q 261.66 122.37 261.32 122.83
  C 257.55 127.89 256.07 131.47 248.89 131.06
  A 1.02 1.02 0.0 0 1 248.10 129.47
  C 250.43 126.07 248.05 124.51 246.27 121.89
  Q 244.76 119.69 246.64 121.58
  Q 249.66 124.62 252.47 121.50
  C 252.79 121.15 252.94 120.65 252.65 120.27
  Q 252.32 119.85 251.87 120.13
  L 250.29 121.09
  Q 249.77 121.40 249.97 120.83"
/>
<path stroke="#fb989f" vector-effect="non-scaling-stroke" d="
  M 213.93 146.60
  A 0.84 0.83 -79.9 0 1 214.55 147.49
  Q 213.58 156.82 212.76 165.77
  Q 212.43 169.32 213.32 172.15
  C 214.49 175.92 217.47 179.82 217.63 183.66
  C 217.81 187.80 218.11 191.87 218.02 196.02
  Q 217.91 201.30 223.35 202.36
  Q 223.92 202.47 224.30 202.89
  Q 226.94 205.75 230.69 206.65
  Q 231.26 206.78 231.60 207.24
  Q 233.45 209.74 236.68 209.94
  Q 237.31 209.98 237.04 209.41
  L 235.40 205.94
  Q 235.16 205.42 234.62 205.22
  C 229.59 203.35 221.94 200.64 221.43 195.94
  Q 221.37 195.38 221.59 194.87
  L 227.99 179.80
  A 1.12 1.11 21.3 0 1 229.40 179.19
  Q 233.82 180.79 237.08 177.35
  C 238.08 176.30 239.13 176.31 238.95 174.25
  Q 238.19 165.13 237.43 155.97
  Q 237.38 155.36 237.74 154.88
  L 239.44 152.65
  Q 239.89 152.05 239.18 151.82
  Q 234.96 150.43 233.77 147.73
  C 230.24 139.64 227.42 133.74 219.91 129.98
  C 212.69 126.36 203.25 129.83 197.20 134.35
  A 0.53 0.52 42.6 0 0 197.24 135.22
  Q 199.05 136.34 199.57 138.34
  Q 199.71 138.85 199.41 139.28
  Q 197.57 141.90 197.58 144.94
  C 197.59 148.82 196.47 151.76 195.45 155.29
  C 194.24 159.50 195.44 162.18 199.91 162.76
  A 1.45 1.45 0.0 0 0 201.53 161.51
  C 202.23 156.36 206.03 152.74 209.11 148.76
  C 210.42 147.06 211.83 146.05 213.93 146.60"
/>
<path stroke="#fb989f" vector-effect="non-scaling-stroke" d="
  M 279.50 159.53
  A 0.64 0.64 0.0 0 1 280.38 158.62
  C 284.53 161.63 285.99 164.74 286.41 170.09
  C 287.41 182.90 294.31 186.09 306.02 185.17
  Q 307.73 185.04 306.03 184.79
  C 296.91 183.47 294.25 179.31 292.85 170.67
  C 291.41 161.73 289.44 154.92 277.82 157.09
  Q 277.35 157.17 276.98 156.88
  Q 271.84 152.79 265.25 152.17
  Q 264.73 152.12 264.63 152.63
  Q 264.20 155.04 262.45 155.43
  Q 256.11 156.82 249.86 158.23
  Q 249.39 158.34 249.25 158.80
  C 248.04 162.86 244.30 173.86 246.02 177.53
  Q 246.28 178.09 246.87 177.93
  L 257.29 175.01
  Q 257.88 174.85 257.92 175.46
  L 258.03 177.25
  Q 258.07 177.85 258.39 178.35
  L 265.44 189.26
  Q 266.14 190.34 265.06 191.06
  Q 260.75 193.93 256.53 196.81
  C 254.31 198.32 253.41 204.03 252.67 206.67
  A 0.45 0.44 87.1 0 0 253.26 207.21
  C 254.87 206.54 259.98 204.91 256.53 202.27
  A 0.92 0.91 44.8 0 1 256.52 200.83
  C 260.99 197.31 265.39 195.18 270.29 192.33
  A 1.95 1.95 0.0 0 0 271.15 190.00
  L 268.97 183.79
  Q 268.80 183.29 269.25 183.01
  C 275.89 178.88 285.76 167.68 279.50 159.53"
/>
<path stroke="#fb989f" vector-effect="non-scaling-stroke" d="
  M 201.95 173.61
  L 211.70 175.47
  Q 212.15 175.56 212.05 175.11
  L 210.38 168.21
  Q 210.27 167.77 209.82 167.85
  C 204.31 168.91 198.70 169.06 195.78 170.79
  Q 195.25 171.10 195.54 171.65
  Q 200.71 181.42 206.14 191.07
  C 207.57 193.62 208.32 196.60 209.78 199.41
  A 0.64 0.64 0.0 0 0 210.97 199.23
  L 211.92 194.16
  Q 212.04 193.50 211.53 193.07
  L 208.73 190.71
  Q 208.33 190.38 208.25 189.87
  L 208.00 188.29
  Q 207.92 187.82 207.62 187.46
  Q 202.76 181.67 201.36 174.19
  Q 201.23 173.47 201.95 173.61"
/>
<path stroke="#fb989f" vector-effect="non-scaling-stroke" d="
  M 286.16 205.17
  L 288.03 204.23
  Q 288.57 203.96 288.40 203.38
  Q 286.19 195.37 287.27 187.18
  Q 287.33 186.68 286.98 186.32
  L 278.68 177.90
  Q 278.33 177.54 277.98 177.90
  L 274.80 181.07
  Q 274.36 181.51 274.84 181.91
  C 277.45 184.07 281.20 186.19 282.56 189.35
  C 284.23 193.23 287.38 204.18 281.84 206.02
  Q 281.28 206.20 280.92 206.66
  L 279.96 207.88
  Q 279.57 208.38 280.20 208.42
  L 285.54 208.77
  Q 286.14 208.81 286.05 208.21
  L 285.72 206.02
  Q 285.63 205.44 286.16 205.17"
/>
<path stroke="#8887d0" vector-effect="non-scaling-stroke" d="
  M 248.68 118.20
  Q 248.18 118.81 248.24 119.63
  Q 248.31 120.58 248.70 119.71
  L 249.31 118.31
  Q 250.22 116.26 248.68 118.20"
/>
<path stroke="#a1e4f3" vector-effect="non-scaling-stroke" d="
  M 238.78 260.63
  Q 244.10 268.24 251.10 261.87
  Q 251.83 261.20 252.70 261.69
  C 254.41 262.65 255.75 264.28 257.71 264.60
  Q 262.39 265.38 265.17 260.95
  A 1.91 1.91 0.0 0 1 267.78 260.33
  C 272.47 263.17 275.63 260.55 278.77 257.07
  Q 279.13 256.67 279.66 256.79
  C 281.31 257.16 283.08 257.85 284.64 257.73
  C 292.73 257.07 292.77 245.19 284.52 244.52
  C 282.90 244.39 281.32 245.27 279.48 245.28
  Q 278.94 245.28 278.62 244.85
  Q 274.32 239.09 267.67 242.29
  Q 267.17 242.53 266.70 242.26
  C 265.17 241.37 263.94 239.59 262.83 238.88
  Q 257.98 235.78 253.53 240.16
  Q 253.13 240.56 252.59 240.40
  C 250.23 239.68 247.69 237.55 245.41 237.55
  C 241.24 237.56 240.66 240.15 237.89 242.26
  Q 237.44 242.60 236.93 242.33
  C 228.54 237.79 226.66 247.33 222.09 244.68
  Q 221.65 244.42 221.15 244.42
  C 208.40 244.45 213.82 262.61 223.89 256.64
  A 1.33 1.33 0.0 0 1 225.61 256.96
  C 227.86 259.81 229.08 261.29 233.04 261.30
  C 234.68 261.31 236.06 260.33 237.86 260.19
  Q 238.44 260.15 238.78 260.63"
/>
<path stroke="#a1e4f3" vector-effect="non-scaling-stroke" d="
  M 248.29 272.48
  C 251.30 271.21 253.16 271.65 256.10 273.00
  Q 256.64 273.26 256.88 272.71
  L 258.28 269.45
  Q 258.57 268.79 257.85 268.73
  Q 255.05 268.47 252.81 266.80
  Q 252.40 266.49 251.92 266.69
  L 246.55 268.87
  Q 246.15 269.03 246.32 269.44
  L 247.48 272.15
  Q 247.72 272.72 248.29 272.48"
/>
</g>
<path fill="#100ea0" d="
  M 385.12 295.05
  C 381.19 294.68 378.37 300.71 377.88 303.83
  C 372.98 334.85 361.21 367.01 336.69 387.42
  Q 334.07 389.60 323.28 397.03
  C 317.86 400.77 316.64 409.90 313.15 415.27
  Q 310.40 419.49 306.44 422.69
  C 292.21 434.19 276.69 443.79 260.68 452.59
  C 254.62 455.92 251.34 458.43 245.60 455.38
  Q 223.98 443.89 205.46 431.03
  C 198.18 425.97 188.30 418.92 185.45 409.45
  C 182.92 401.04 178.84 397.66 170.96 392.18
  C 144.98 374.15 131.72 344.80 125.63 314.92
  C 124.45 309.13 123.75 302.43 120.66 297.33
  C 117.00 291.29 109.34 299.79 105.21 300.72
  C 98.81 302.17 95.01 290.65 93.66 286.02
  C 91.03 276.96 81.20 231.07 95.35 229.28
  C 99.46 228.76 103.13 231.80 107.32 231.82
  C 116.17 231.85 119.59 218.44 119.89 211.78
  C 120.64 195.06 116.26 173.14 103.15 161.36
  C 94.15 153.26 89.08 172.67 81.19 160.26
  C 74.28 149.36 67.49 136.33 65.15 123.57
  C 62.70 110.24 77.59 102.24 88.19 97.45
  Q 102.47 90.99 109.57 89.33
  C 115.66 87.91 118.73 91.62 120.26 96.79
  C 122.21 103.36 129.18 105.41 135.79 105.98
  C 153.89 107.56 211.78 106.11 210.46 77.79
  C 210.16 71.21 206.73 66.98 212.92 61.48
  C 223.51 52.06 238.95 42.43 253.06 43.55
  C 266.62 44.63 281.40 54.49 290.76 63.99
  C 293.93 67.20 290.41 76.15 290.90 80.57
  C 291.51 86.05 293.66 90.45 298.47 93.63
  C 315.01 104.55 337.60 107.14 356.81 106.46
  C 364.58 106.18 376.16 106.14 379.90 99.38
  C 382.42 94.82 381.76 90.00 388.42 89.26
  Q 391.26 88.95 396.82 90.92
  C 409.17 95.30 421.99 100.16 431.60 109.40
  C 439.21 116.70 436.21 127.07 432.80 135.52
  Q 427.31 149.10 419.36 161.40
  C 412.75 171.63 406.46 153.61 398.19 161.25
  C 384.53 173.87 380.35 195.97 381.72 213.75
  C 382.20 220.03 384.96 229.00 391.63 231.48
  C 396.33 233.23 400.63 228.85 405.39 229.23
  C 412.18 229.76 412.86 238.10 413.05 243.68
  Q 413.97 270.00 404.61 294.49
  Q 403.97 296.16 402.09 298.26
  C 395.54 305.58 390.74 295.57 385.12 295.05
  Z
  M 148.25 224.46
  C 143.76 233.40 140.58 245.90 127.93 246.32
  C 124.53 246.44 120.78 244.98 117.40 243.79
  Q 116.86 243.60 116.39 243.91
  Q 114.09 245.40 114.13 248.69
  C 114.27 260.93 115.16 272.14 120.55 283.20
  C 122.30 286.81 125.50 285.62 128.40 283.81
  C 137.21 278.33 144.16 295.72 146.46 301.50
  L 148.25 306.04
  C 155.28 328.79 162.59 346.85 179.21 363.50
  Q 180.23 365.80 182.30 366.70
  Q 186.38 371.81 191.39 375.30
  Q 193.40 377.58 195.03 378.10
  C 197.79 381.29 199.34 382.98 200.60 387.30
  Q 202.55 393.97 208.00 398.54
  L 211.53 401.96
  Q 224.46 413.48 238.93 422.16
  C 246.43 426.66 250.75 429.33 258.41 424.91
  Q 277.07 414.15 291.49 400.91
  L 295.00 397.54
  Q 299.68 393.50 301.12 387.62
  C 302.70 381.19 308.85 376.82 315.07 371.31
  Q 326.06 361.57 334.38 349.32
  L 337.25 345.04
  C 344.62 335.05 348.90 321.08 352.50 309.29
  L 354.29 304.50
  C 356.80 298.66 362.72 281.92 370.65 282.73
  C 374.39 283.11 376.82 288.07 380.71 284.20
  Q 381.83 283.08 383.46 278.82
  C 387.15 269.18 388.26 257.04 387.64 247.08
  C 387.43 243.60 384.83 243.66 382.18 244.64
  C 364.96 250.98 359.11 237.24 353.59 224.47
  Q 349.59 193.64 364.49 166.21
  C 369.65 156.71 376.28 147.06 384.43 140.33
  C 386.86 138.33 391.63 136.08 390.96 132.27
  C 390.24 128.12 386.98 127.44 383.19 128.22
  C 352.61 134.46 305.11 136.57 286.46 104.85
  Q 285.56 103.33 283.05 96.95
  C 272.88 71.17 236.99 66.75 222.08 90.59
  Q 221.36 91.74 217.94 99.67
  C 202.12 136.40 150.42 135.24 117.90 128.05
  C 110.83 126.49 108.69 133.82 114.38 137.96
  Q 121.29 142.99 127.47 151.01
  C 144.26 172.83 151.69 196.79 148.25 224.46
  Z"
/>
<path fill="#f6303f" d="
  M 353.59 224.47
  L 148.25 224.46
  C 151.69 196.79 144.26 172.83 127.47 151.01
  Q 121.29 142.99 114.38 137.96
  C 108.69 133.82 110.83 126.49 117.90 128.05
  C 150.42 135.24 202.12 136.40 217.94 99.67
  Q 221.36 91.74 222.08 90.59
  C 236.99 66.75 272.88 71.17 283.05 96.95
  Q 285.56 103.33 286.46 104.85
  C 305.11 136.57 352.61 134.46 383.19 128.22
  C 386.98 127.44 390.24 128.12 390.96 132.27
  C 391.63 136.08 386.86 138.33 384.43 140.33
  C 376.28 147.06 369.65 156.71 364.49 166.21
  Q 349.59 193.64 353.59 224.47
  Z
  M 249.97 120.83
  Q 250.02 120.70 250.07 120.56
  Q 250.17 120.24 250.50 120.18
  Q 252.32 119.84 251.90 118.06
  Q 251.77 117.49 251.18 117.41
  L 248.15 116.99
  Q 247.39 116.89 247.17 117.62
  L 246.09 121.25
  Q 245.93 121.79 245.45 122.10
  L 242.67 123.87
  Q 242.21 124.17 242.11 124.71
  L 241.64 127.31
  Q 241.55 127.79 241.79 128.21
  Q 242.73 129.93 241.84 131.76
  Q 241.64 132.16 242.02 132.38
  L 242.27 132.53
  Q 242.45 132.63 242.62 132.51
  L 244.26 131.32
  Q 245.07 130.74 245.02 131.74
  Q 244.95 133.18 244.06 134.34
  Q 243.72 134.79 243.19 134.63
  L 234.74 132.20
  Q 234.07 132.01 234.41 131.40
  L 238.13 124.63
  Q 238.42 124.10 239.02 124.13
  Q 240.62 124.22 240.26 122.62
  Q 240.16 122.14 240.47 121.77
  L 253.16 106.64
  A 0.36 0.36 0.0 0 0 252.63 106.15
  L 238.93 120.20
  Q 238.56 120.57 238.07 120.40
  L 237.29 120.14
  Q 236.60 119.90 236.55 120.63
  L 236.40 123.29
  Q 236.37 123.75 236.05 124.10
  C 234.43 125.85 227.78 131.28 231.06 133.44
  Q 236.54 137.06 242.05 140.69
  Q 242.50 140.98 242.72 141.47
  Q 244.62 145.71 248.63 148.09
  A 0.38 0.38 0.0 0 1 248.54 148.78
  Q 242.64 150.45 239.40 155.76
  Q 239.17 156.14 239.20 156.58
  Q 239.88 165.30 240.82 173.99
  C 241.18 177.28 238.06 178.85 235.84 180.46
  A 0.50 0.50 0.0 0 0 236.26 181.34
  L 243.99 179.26
  Q 244.55 179.11 244.34 178.56
  C 242.62 174.07 245.48 165.45 247.05 160.54
  C 247.39 159.48 247.14 158.46 247.50 157.31
  Q 247.61 156.95 247.98 156.87
  L 261.71 153.78
  Q 263.14 153.46 262.73 152.06
  Q 261.40 147.49 256.99 145.57
  Q 256.46 145.33 256.20 144.82
  Q 254.65 141.79 254.50 138.36
  Q 254.46 137.66 255.14 137.50
  Q 260.90 136.12 265.15 131.97
  Q 265.59 131.55 266.19 131.53
  Q 273.40 131.31 279.95 134.41
  A 0.77 0.77 0.0 0 0 280.84 133.19
  Q 275.49 127.44 268.09 124.93
  Q 267.58 124.76 267.69 124.23
  L 268.28 121.21
  A 0.53 0.53 0.0 0 0 267.39 120.74
  C 266.79 121.35 264.49 125.04 263.76 124.62
  Q 263.29 124.34 263.31 123.80
  Q 263.35 122.68 262.22 122.47
  Q 261.66 122.37 261.32 122.83
  C 257.55 127.89 256.07 131.47 248.89 131.06
  A 1.02 1.02 0.0 0 1 248.10 129.47
  C 250.43 126.07 248.05 124.51 246.27 121.89
  Q 244.76 119.69 246.64 121.58
  Q 249.66 124.62 252.47 121.50
  C 252.79 121.15 252.94 120.65 252.65 120.27
  Q 252.32 119.85 251.87 120.13
  L 250.29 121.09
  Q 249.77 121.40 249.97 120.83
  Z
  M 213.93 146.60
  A 0.84 0.83 -79.9 0 1 214.55 147.49
  Q 213.58 156.82 212.76 165.77
  Q 212.43 169.32 213.32 172.15
  C 214.49 175.92 217.47 179.82 217.63 183.66
  C 217.81 187.80 218.11 191.87 218.02 196.02
  Q 217.91 201.30 223.35 202.36
  Q 223.92 202.47 224.30 202.89
  Q 226.94 205.75 230.69 206.65
  Q 231.26 206.78 231.60 207.24
  Q 233.45 209.74 236.68 209.94
  Q 237.31 209.98 237.04 209.41
  L 235.40 205.94
  Q 235.16 205.42 234.62 205.22
  C 229.59 203.35 221.94 200.64 221.43 195.94
  Q 221.37 195.38 221.59 194.87
  L 227.99 179.80
  A 1.12 1.11 21.3 0 1 229.40 179.19
  Q 233.82 180.79 237.08 177.35
  C 238.08 176.30 239.13 176.31 238.95 174.25
  Q 238.19 165.13 237.43 155.97
  Q 237.38 155.36 237.74 154.88
  L 239.44 152.65
  Q 239.89 152.05 239.18 151.82
  Q 234.96 150.43 233.77 147.73
  C 230.24 139.64 227.42 133.74 219.91 129.98
  C 212.69 126.36 203.25 129.83 197.20 134.35
  A 0.53 0.52 42.6 0 0 197.24 135.22
  Q 199.05 136.34 199.57 138.34
  Q 199.71 138.85 199.41 139.28
  Q 197.57 141.90 197.58 144.94
  C 197.59 148.82 196.47 151.76 195.45 155.29
  C 194.24 159.50 195.44 162.18 199.91 162.76
  A 1.45 1.45 0.0 0 0 201.53 161.51
  C 202.23 156.36 206.03 152.74 209.11 148.76
  C 210.42 147.06 211.83 146.05 213.93 146.60
  Z
  M 279.50 159.53
  A 0.64 0.64 0.0 0 1 280.38 158.62
  C 284.53 161.63 285.99 164.74 286.41 170.09
  C 287.41 182.90 294.31 186.09 306.02 185.17
  Q 307.73 185.04 306.03 184.79
  C 296.91 183.47 294.25 179.31 292.85 170.67
  C 291.41 161.73 289.44 154.92 277.82 157.09
  Q 277.35 157.17 276.98 156.88
  Q 271.84 152.79 265.25 152.17
  Q 264.73 152.12 264.63 152.63
  Q 264.20 155.04 262.45 155.43
  Q 256.11 156.82 249.86 158.23
  Q 249.39 158.34 249.25 158.80
  C 248.04 162.86 244.30 173.86 246.02 177.53
  Q 246.28 178.09 246.87 177.93
  L 257.29 175.01
  Q 257.88 174.85 257.92 175.46
  L 258.03 177.25
  Q 258.07 177.85 258.39 178.35
  L 265.44 189.26
  Q 266.14 190.34 265.06 191.06
  Q 260.75 193.93 256.53 196.81
  C 254.31 198.32 253.41 204.03 252.67 206.67
  A 0.45 0.44 87.1 0 0 253.26 207.21
  C 254.87 206.54 259.98 204.91 256.53 202.27
  A 0.92 0.91 44.8 0 1 256.52 200.83
  C 260.99 197.31 265.39 195.18 270.29 192.33
  A 1.95 1.95 0.0 0 0 271.15 190.00
  L 268.97 183.79
  Q 268.80 183.29 269.25 183.01
  C 275.89 178.88 285.76 167.68 279.50 159.53
  Z
  M 201.95 173.61
  L 211.70 175.47
  Q 212.15 175.56 212.05 175.11
  L 210.38 168.21
  Q 210.27 167.77 209.82 167.85
  C 204.31 168.91 198.70 169.06 195.78 170.79
  Q 195.25 171.10 195.54 171.65
  Q 200.71 181.42 206.14 191.07
  C 207.57 193.62 208.32 196.60 209.78 199.41
  A 0.64 0.64 0.0 0 0 210.97 199.23
  L 211.92 194.16
  Q 212.04 193.50 211.53 193.07
  L 208.73 190.71
  Q 208.33 190.38 208.25 189.87
  L 208.00 188.29
  Q 207.92 187.82 207.62 187.46
  Q 202.76 181.67 201.36 174.19
  Q 201.23 173.47 201.95 173.61
  Z
  M 286.16 205.17
  L 288.03 204.23
  Q 288.57 203.96 288.40 203.38
  Q 286.19 195.37 287.27 187.18
  Q 287.33 186.68 286.98 186.32
  L 278.68 177.90
  Q 278.33 177.54 277.98 177.90
  L 274.80 181.07
  Q 274.36 181.51 274.84 181.91
  C 277.45 184.07 281.20 186.19 282.56 189.35
  C 284.23 193.23 287.38 204.18 281.84 206.02
  Q 281.28 206.20 280.92 206.66
  L 279.96 207.88
  Q 279.57 208.38 280.20 208.42
  L 285.54 208.77
  Q 286.14 208.81 286.05 208.21
  L 285.72 206.02
  Q 285.63 205.44 286.16 205.17
  Z"
/>
<path fill="#ffffff" d="
  M 250.29 121.09
  L 251.87 120.13
  Q 252.32 119.85 252.65 120.27
  C 252.94 120.65 252.79 121.15 252.47 121.50
  Q 249.66 124.62 246.64 121.58
  Q 244.76 119.69 246.27 121.89
  C 248.05 124.51 250.43 126.07 248.10 129.47
  A 1.02 1.02 0.0 0 0 248.89 131.06
  C 256.07 131.47 257.55 127.89 261.32 122.83
  Q 261.66 122.37 262.22 122.47
  Q 263.35 122.68 263.31 123.80
  Q 263.29 124.34 263.76 124.62
  C 264.49 125.04 266.79 121.35 267.39 120.74
  A 0.53 0.53 0.0 0 1 268.28 121.21
  L 267.69 124.23
  Q 267.58 124.76 268.09 124.93
  Q 275.49 127.44 280.84 133.19
  A 0.77 0.77 0.0 0 1 279.95 134.41
  Q 273.40 131.31 266.19 131.53
  Q 265.59 131.55 265.15 131.97
  Q 260.90 136.12 255.14 137.50
  Q 254.46 137.66 254.50 138.36
  Q 254.65 141.79 256.20 144.82
  Q 256.46 145.33 256.99 145.57
  Q 261.40 147.49 262.73 152.06
  Q 263.14 153.46 261.71 153.78
  L 247.98 156.87
  Q 247.61 156.95 247.50 157.31
  C 247.14 158.46 247.39 159.48 247.05 160.54
  C 245.48 165.45 242.62 174.07 244.34 178.56
  Q 244.55 179.11 243.99 179.26
  L 236.26 181.34
  A 0.50 0.50 0.0 0 1 235.84 180.46
  C 238.06 178.85 241.18 177.28 240.82 173.99
  Q 239.88 165.30 239.20 156.58
  Q 239.17 156.14 239.40 155.76
  Q 242.64 150.45 248.54 148.78
  A 0.38 0.38 0.0 0 0 248.63 148.09
  Q 244.62 145.71 242.72 141.47
  Q 242.50 140.98 242.05 140.69
  Q 236.54 137.06 231.06 133.44
  C 227.78 131.28 234.43 125.85 236.05 124.10
  Q 236.37 123.75 236.40 123.29
  L 236.55 120.63
  Q 236.60 119.90 237.29 120.14
  L 238.07 120.40
  Q 238.56 120.57 238.93 120.20
  L 252.63 106.15
  A 0.36 0.36 0.0 0 1 253.16 106.64
  L 240.47 121.77
  Q 240.16 122.14 240.26 122.62
  Q 240.62 124.22 239.02 124.13
  Q 238.42 124.10 238.13 124.63
  L 234.41 131.40
  Q 234.07 132.01 234.74 132.20
  L 243.19 134.63
  Q 243.72 134.79 244.06 134.34
  Q 244.95 133.18 245.02 131.74
  Q 245.07 130.74 244.26 131.32
  L 242.62 132.51
  Q 242.45 132.63 242.27 132.53
  L 242.02 132.38
  Q 241.64 132.16 241.84 131.76
  Q 242.73 129.93 241.79 128.21
  Q 241.55 127.79 241.64 127.31
  L 242.11 124.71
  Q 242.21 124.17 242.67 123.87
  L 245.45 122.10
  Q 245.93 121.79 246.09 121.25
  L 247.17 117.62
  Q 247.39 116.89 248.15 116.99
  L 251.18 117.41
  Q 251.77 117.49 251.90 118.06
  Q 252.32 119.84 250.50 120.18
  Q 250.17 120.24 250.07 120.56
  Q 250.02 120.70 249.97 120.83
  Q 249.77 121.40 250.29 121.09
  Z
  M 248.68 118.20
  Q 248.18 118.81 248.24 119.63
  Q 248.31 120.58 248.70 119.71
  L 249.31 118.31
  Q 250.22 116.26 248.68 118.20
  Z"
/>
<path fill="#100ea0" d="
  M 249.31 118.31
  L 248.70 119.71
  Q 248.31 120.58 248.24 119.63
  Q 248.18 118.81 248.68 118.20
  Q 250.22 116.26 249.31 118.31
  Z"
/>
<path fill="#ffffff" d="
  M 213.93 146.60
  C 211.83 146.05 210.42 147.06 209.11 148.76
  C 206.03 152.74 202.23 156.36 201.53 161.51
  A 1.45 1.45 0.0 0 1 199.91 162.76
  C 195.44 162.18 194.24 159.50 195.45 155.29
  C 196.47 151.76 197.59 148.82 197.58 144.94
  Q 197.57 141.90 199.41 139.28
  Q 199.71 138.85 199.57 138.34
  Q 199.05 136.34 197.24 135.22
  A 0.53 0.52 42.6 0 1 197.20 134.35
  C 203.25 129.83 212.69 126.36 219.91 129.98
  C 227.42 133.74 230.24 139.64 233.77 147.73
  Q 234.96 150.43 239.18 151.82
  Q 239.89 152.05 239.44 152.65
  L 237.74 154.88
  Q 237.38 155.36 237.43 155.97
  Q 238.19 165.13 238.95 174.25
  C 239.13 176.31 238.08 176.30 237.08 177.35
  Q 233.82 180.79 229.40 179.19
  A 1.12 1.11 21.3 0 0 227.99 179.80
  L 221.59 194.87
  Q 221.37 195.38 221.43 195.94
  C 221.94 200.64 229.59 203.35 234.62 205.22
  Q 235.16 205.42 235.40 205.94
  L 237.04 209.41
  Q 237.31 209.98 236.68 209.94
  Q 233.45 209.74 231.60 207.24
  Q 231.26 206.78 230.69 206.65
  Q 226.94 205.75 224.30 202.89
  Q 223.92 202.47 223.35 202.36
  Q 217.91 201.30 218.02 196.02
  C 218.11 191.87 217.81 187.80 217.63 183.66
  C 217.47 179.82 214.49 175.92 213.32 172.15
  Q 212.43 169.32 212.76 165.77
  Q 213.58 156.82 214.55 147.49
  A 0.84 0.83 -79.9 0 0 213.93 146.60
  Z"
/>
<path fill="#ffffff" d="
  M 279.50 159.53
  C 285.76 167.68 275.89 178.88 269.25 183.01
  Q 268.80 183.29 268.97 183.79
  L 271.15 190.00
  A 1.95 1.95 0.0 0 1 270.29 192.33
  C 265.39 195.18 260.99 197.31 256.52 200.83
  A 0.92 0.91 44.8 0 0 256.53 202.27
  C 259.98 204.91 254.87 206.54 253.26 207.21
  A 0.45 0.44 87.1 0 1 252.67 206.67
  C 253.41 204.03 254.31 198.32 256.53 196.81
  Q 260.75 193.93 265.06 191.06
  Q 266.14 190.34 265.44 189.26
  L 258.39 178.35
  Q 258.07 177.85 258.03 177.25
  L 257.92 175.46
  Q 257.88 174.85 257.29 175.01
  L 246.87 177.93
  Q 246.28 178.09 246.02 177.53
  C 244.30 173.86 248.04 162.86 249.25 158.80
  Q 249.39 158.34 249.86 158.23
  Q 256.11 156.82 262.45 155.43
  Q 264.20 155.04 264.63 152.63
  Q 264.73 152.12 265.25 152.17
  Q 271.84 152.79 276.98 156.88
  Q 277.35 157.17 277.82 157.09
  C 289.44 154.92 291.41 161.73 292.85 170.67
  C 294.25 179.31 296.91 183.47 306.03 184.79
  Q 307.73 185.04 306.02 185.17
  C 294.31 186.09 287.41 182.90 286.41 170.09
  C 285.99 164.74 284.53 161.63 280.38 158.62
  A 0.64 0.64 0.0 0 0 279.50 159.53
  Z"
/>
<path fill="#ffffff" d="
  M 201.36 174.19
  Q 202.76 181.67 207.62 187.46
  Q 207.92 187.82 208.00 188.29
  L 208.25 189.87
  Q 208.33 190.38 208.73 190.71
  L 211.53 193.07
  Q 212.04 193.50 211.92 194.16
  L 210.97 199.23
  A 0.64 0.64 0.0 0 1 209.78 199.41
  C 208.32 196.60 207.57 193.62 206.14 191.07
  Q 200.71 181.42 195.54 171.65
  Q 195.25 171.10 195.78 170.79
  C 198.70 169.06 204.31 168.91 209.82 167.85
  Q 210.27 167.77 210.38 168.21
  L 212.05 175.11
  Q 212.15 175.56 211.70 175.47
  L 201.95 173.61
  Q 201.23 173.47 201.36 174.19
  Z"
/>
<path fill="#ffffff" d="
  M 285.72 206.02
  L 286.05 208.21
  Q 286.14 208.81 285.54 208.77
  L 280.20 208.42
  Q 279.57 208.38 279.96 207.88
  L 280.92 206.66
  Q 281.28 206.20 281.84 206.02
  C 287.38 204.18 284.23 193.23 282.56 189.35
  C 281.20 186.19 277.45 184.07 274.84 181.91
  Q 274.36 181.51 274.80 181.07
  L 277.98 177.90
  Q 278.33 177.54 278.68 177.90
  L 286.98 186.32
  Q 287.33 186.68 287.27 187.18
  Q 286.19 195.37 288.40 203.38
  Q 288.57 203.96 288.03 204.23
  L 286.16 205.17
  Q 285.63 205.44 285.72 206.02
  Z"
/>
<path fill="#43c8e7" d="
  M 148.25 224.46
  L 353.59 224.47
  C 359.11 237.24 364.96 250.98 382.18 244.64
  C 384.83 243.66 387.43 243.60 387.64 247.08
  C 388.26 257.04 387.15 269.18 383.46 278.82
  Q 381.83 283.08 380.71 284.20
  C 376.82 288.07 374.39 283.11 370.65 282.73
  C 362.72 281.92 356.80 298.66 354.29 304.50
  Q 342.75 286.80 332.86 268.11
  C 331.66 265.83 330.17 264.63 328.12 263.27
  Q 327.71 263.01 327.70 262.52
  L 327.56 254.34
  A 1.08 1.08 0.0 0 1 328.70 253.24
  C 337.39 253.74 335.78 245.18 329.73 246.59
  Q 326.87 247.26 327.72 244.97
  C 329.74 239.48 318.98 239.15 321.32 244.94
  A 1.65 1.17 -4.3 0 1 319.45 246.48
  C 316.47 246.22 313.12 247.33 314.25 250.84
  C 315.21 253.80 318.16 253.20 320.57 253.26
  Q 321.13 253.27 321.14 253.83
  L 321.30 262.38
  Q 321.31 262.97 320.81 263.28
  Q 317.40 265.38 316.78 266.55
  Q 302.57 293.48 285.44 318.39
  A 0.61 0.61 0.0 0 1 284.43 318.38
  C 280.41 312.31 259.34 280.70 260.26 275.74
  C 261.56 268.75 266.40 266.43 272.81 265.54
  Q 277.16 264.93 280.26 261.63
  Q 280.62 261.25 281.12 261.35
  C 299.96 264.95 297.85 236.47 281.24 240.96
  Q 280.74 241.10 280.37 240.73
  Q 275.21 235.51 268.26 237.70
  Q 267.75 237.86 267.37 237.48
  Q 260.80 230.82 252.72 235.71
  Q 252.24 236.00 251.76 235.71
  Q 243.44 230.73 236.93 237.60
  A 0.72 0.71 -58.2 0 1 236.18 237.78
  Q 229.22 235.41 224.22 240.60
  Q 223.87 240.96 223.38 240.87
  C 205.65 237.71 204.41 263.91 223.40 261.45
  Q 223.92 261.39 224.28 261.76
  C 230.82 268.52 241.61 262.66 244.01 275.26
  Q 244.12 275.84 243.85 276.36
  Q 231.47 299.63 216.71 321.46
  A 0.69 0.68 -45.4 0 1 215.58 321.47
  Q 197.46 295.64 182.70 267.80
  Q 181.34 265.24 178.02 263.40
  Q 177.50 263.12 177.50 262.52
  L 177.50 253.95
  Q 177.50 253.24 178.22 253.25
  C 187.96 253.47 185.72 244.86 177.94 246.64
  Q 177.17 246.81 177.37 246.05
  C 178.99 239.73 171.01 237.89 170.99 245.02
  Q 170.99 246.40 169.60 246.38
  C 160.92 246.26 162.99 254.66 169.97 253.16
  A 0.85 0.85 0.0 0 1 171.00 253.99
  L 171.00 262.79
  Q 171.00 263.36 170.48 263.60
  Q 167.57 264.95 166.75 266.52
  Q 157.35 284.45 146.46 301.50
  C 144.16 295.72 137.21 278.33 128.40 283.81
  C 125.50 285.62 122.30 286.81 120.55 283.20
  C 115.16 272.14 114.27 260.93 114.13 248.69
  Q 114.09 245.40 116.39 243.91
  Q 116.86 243.60 117.40 243.79
  C 120.78 244.98 124.53 246.44 127.93 246.32
  C 140.58 245.90 143.76 233.40 148.25 224.46
  Z"
/>
<path fill="#ffffff" d="
  M 354.29 304.50
  L 352.50 309.29
  Q 340.23 290.56 329.76 270.76
  C 326.37 264.33 321.61 265.98 318.60 271.61
  Q 304.63 297.77 287.61 322.25
  Q 287.31 322.69 287.62 323.13
  Q 295.72 334.59 304.95 345.17
  Q 305.32 345.58 305.86 345.55
  Q 321.61 344.73 337.25 345.04
  L 334.38 349.32
  Q 315.20 348.35 294.74 350.71
  Q 242.31 356.74 195.03 378.10
  Q 193.40 377.58 191.39 375.30
  Q 243.23 351.57 300.06 346.13
  A 0.19 0.19 0.0 0 0 300.18 345.82
  C 283.01 325.64 269.03 302.96 256.54 279.66
  C 253.68 274.32 249.37 274.50 246.52 279.84
  C 232.30 306.42 216.62 331.75 195.96 353.41
  Q 195.76 351.12 194.53 349.33
  Q 204.48 338.20 213.45 326.22
  Q 213.75 325.81 213.46 325.39
  Q 194.53 298.86 179.29 270.05
  C 176.27 264.34 171.29 266.39 168.74 271.26
  Q 159.34 289.15 148.25 306.04
  L 146.46 301.50
  Q 157.35 284.45 166.75 266.52
  Q 167.57 264.95 170.48 263.60
  Q 171.00 263.36 171.00 262.79
  L 171.00 253.99
  A 0.85 0.85 0.0 0 0 169.97 253.16
  C 162.99 254.66 160.92 246.26 169.60 246.38
  Q 170.99 246.40 170.99 245.02
  C 171.01 237.89 178.99 239.73 177.37 246.05
  Q 177.17 246.81 177.94 246.64
  C 185.72 244.86 187.96 253.47 178.22 253.25
  Q 177.50 253.24 177.50 253.95
  L 177.50 262.52
  Q 177.50 263.12 178.02 263.40
  Q 181.34 265.24 182.70 267.80
  Q 197.46 295.64 215.58 321.47
  A 0.69 0.68 -45.4 0 0 216.71 321.46
  Q 231.47 299.63 243.85 276.36
  Q 244.12 275.84 244.01 275.26
  C 241.61 262.66 230.82 268.52 224.28 261.76
  Q 223.92 261.39 223.40 261.45
  C 204.41 263.91 205.65 237.71 223.38 240.87
  Q 223.87 240.96 224.22 240.60
  Q 229.22 235.41 236.18 237.78
  A 0.72 0.71 -58.2 0 0 236.93 237.60
  Q 243.44 230.73 251.76 235.71
  Q 252.24 236.00 252.72 235.71
  Q 260.80 230.82 267.37 237.48
  Q 267.75 237.86 268.26 237.70
  Q 275.21 235.51 280.37 240.73
  Q 280.74 241.10 281.24 240.96
  C 297.85 236.47 299.96 264.95 281.12 261.35
  Q 280.62 261.25 280.26 261.63
  Q 277.16 264.93 272.81 265.54
  C 266.40 266.43 261.56 268.75 260.26 275.74
  C 259.34 280.70 280.41 312.31 284.43 318.38
  A 0.61 0.61 0.0 0 0 285.44 318.39
  Q 302.57 293.48 316.78 266.55
  Q 317.40 265.38 320.81 263.28
  Q 321.31 262.97 321.30 262.38
  L 321.14 253.83
  Q 321.13 253.27 320.57 253.26
  C 318.16 253.20 315.21 253.80 314.25 250.84
  C 313.12 247.33 316.47 246.22 319.45 246.48
  A 1.65 1.17 -4.3 0 0 321.32 244.94
  C 318.98 239.15 329.74 239.48 327.72 244.97
  Q 326.87 247.26 329.73 246.59
  C 335.78 245.18 337.39 253.74 328.70 253.24
  A 1.08 1.08 0.0 0 0 327.56 254.34
  L 327.70 262.52
  Q 327.71 263.01 328.12 263.27
  C 330.17 264.63 331.66 265.83 332.86 268.11
  Q 342.75 286.80 354.29 304.50
  Z
  M 238.78 260.63
  Q 244.10 268.24 251.10 261.87
  Q 251.83 261.20 252.70 261.69
  C 254.41 262.65 255.75 264.28 257.71 264.60
  Q 262.39 265.38 265.17 260.95
  A 1.91 1.91 0.0 0 1 267.78 260.33
  C 272.47 263.17 275.63 260.55 278.77 257.07
  Q 279.13 256.67 279.66 256.79
  C 281.31 257.16 283.08 257.85 284.64 257.73
  C 292.73 257.07 292.77 245.19 284.52 244.52
  C 282.90 244.39 281.32 245.27 279.48 245.28
  Q 278.94 245.28 278.62 244.85
  Q 274.32 239.09 267.67 242.29
  Q 267.17 242.53 266.70 242.26
  C 265.17 241.37 263.94 239.59 262.83 238.88
  Q 257.98 235.78 253.53 240.16
  Q 253.13 240.56 252.59 240.40
  C 250.23 239.68 247.69 237.55 245.41 237.55
  C 241.24 237.56 240.66 240.15 237.89 242.26
  Q 237.44 242.60 236.93 242.33
  C 228.54 237.79 226.66 247.33 222.09 244.68
  Q 221.65 244.42 221.15 244.42
  C 208.40 244.45 213.82 262.61 223.89 256.64
  A 1.33 1.33 0.0 0 1 225.61 256.96
  C 227.86 259.81 229.08 261.29 233.04 261.30
  C 234.68 261.31 236.06 260.33 237.86 260.19
  Q 238.44 260.15 238.78 260.63
  Z
  M 248.29 272.48
  C 251.30 271.21 253.16 271.65 256.10 273.00
  Q 256.64 273.26 256.88 272.71
  L 258.28 269.45
  Q 258.57 268.79 257.85 268.73
  Q 255.05 268.47 252.81 266.80
  Q 252.40 266.49 251.92 266.69
  L 246.55 268.87
  Q 246.15 269.03 246.32 269.44
  L 247.48 272.15
  Q 247.72 272.72 248.29 272.48
  Z"
/>
<path fill="#43c8e7" d="
  M 237.86 260.19
  C 236.06 260.33 234.68 261.31 233.04 261.30
  C 229.08 261.29 227.86 259.81 225.61 256.96
  A 1.33 1.33 0.0 0 0 223.89 256.64
  C 213.82 262.61 208.40 244.45 221.15 244.42
  Q 221.65 244.42 222.09 244.68
  C 226.66 247.33 228.54 237.79 236.93 242.33
  Q 237.44 242.60 237.89 242.26
  C 240.66 240.15 241.24 237.56 245.41 237.55
  C 247.69 237.55 250.23 239.68 252.59 240.40
  Q 253.13 240.56 253.53 240.16
  Q 257.98 235.78 262.83 238.88
  C 263.94 239.59 265.17 241.37 266.70 242.26
  Q 267.17 242.53 267.67 242.29
  Q 274.32 239.09 278.62 244.85
  Q 278.94 245.28 279.48 245.28
  C 281.32 245.27 282.90 244.39 284.52 244.52
  C 292.77 245.19 292.73 257.07 284.64 257.73
  C 283.08 257.85 281.31 257.16 279.66 256.79
  Q 279.13 256.67 278.77 257.07
  C 275.63 260.55 272.47 263.17 267.78 260.33
  A 1.91 1.91 0.0 0 0 265.17 260.95
  Q 262.39 265.38 257.71 264.60
  C 255.75 264.28 254.41 262.65 252.70 261.69
  Q 251.83 261.20 251.10 261.87
  Q 244.10 268.24 238.78 260.63
  Q 238.44 260.15 237.86 260.19
  Z"
/>
<path fill="#43c8e7" d="
  M 256.10 273.00
  C 253.16 271.65 251.30 271.21 248.29 272.48
  Q 247.72 272.72 247.48 272.15
  L 246.32 269.44
  Q 246.15 269.03 246.55 268.87
  L 251.92 266.69
  Q 252.40 266.49 252.81 266.80
  Q 255.05 268.47 257.85 268.73
  Q 258.57 268.79 258.28 269.45
  L 256.88 272.71
  Q 256.64 273.26 256.10 273.00
  Z"
/>
<path fill="#02bd70" d="
  M 194.53 349.33
  C 189.06 353.25 184.19 358.90 179.21 363.50
  C 162.59 346.85 155.28 328.79 148.25 306.04
  Q 159.34 289.15 168.74 271.26
  C 171.29 266.39 176.27 264.34 179.29 270.05
  Q 194.53 298.86 213.46 325.39
  Q 213.75 325.81 213.45 326.22
  Q 204.48 338.20 194.53 349.33
  Z"
/>
<path fill="#02bd70" d="
  M 352.50 309.29
  C 348.90 321.08 344.62 335.05 337.25 345.04
  Q 321.61 344.73 305.86 345.55
  Q 305.32 345.58 304.95 345.17
  Q 295.72 334.59 287.62 323.13
  Q 287.31 322.69 287.61 322.25
  Q 304.63 297.77 318.60 271.61
  C 321.61 265.98 326.37 264.33 329.76 270.76
  Q 340.23 290.56 352.50 309.29
  Z"
/>
<path fill="#02bd70" d="
  M 191.39 375.30
  Q 186.38 371.81 182.30 366.70
  C 187.08 362.21 191.61 358.78 195.96 353.41
  C 216.62 331.75 232.30 306.42 246.52 279.84
  C 249.37 274.50 253.68 274.32 256.54 279.66
  C 269.03 302.96 283.01 325.64 300.18 345.82
  A 0.19 0.19 0.0 0 1 300.06 346.13
  Q 243.23 351.57 191.39 375.30
  Z"
/>
<path fill="#02bd70" d="
  M 334.38 349.32
  Q 326.06 361.57 315.07 371.31
  C 308.85 376.82 302.70 381.19 301.12 387.62
  Q 299.68 393.50 295.00 397.54
  Q 251.34 385.11 208.00 398.54
  Q 202.55 393.97 200.60 387.30
  C 199.34 382.98 197.79 381.29 195.03 378.10
  Q 242.31 356.74 294.74 350.71
  Q 315.20 348.35 334.38 349.32
  Z"
/>
<path fill="#ffffff" d="
  M 295.00 397.54
  L 291.49 400.91
  Q 251.11 389.58 211.53 401.96
  L 208.00 398.54
  Q 251.34 385.11 295.00 397.54
  Z"
/>
<path fill="#02bd70" d="
  M 291.49 400.91
  Q 277.07 414.15 258.41 424.91
  C 250.75 429.33 246.43 426.66 238.93 422.16
  Q 224.46 413.48 211.53 401.96
  Q 251.11 389.58 291.49 400.91
  Z"
/>
</svg>
